<svg xmlns="http://www.w3.org/2000/svg" width="892" height="665" fill="none" viewBox="0 0 892 665">
  <path fill="#EBEBEB" d="M891.849 583.948H.151v.446h891.698v-.446Zm-89.348 28.695h-38.664v.446h38.664v-.446Zm-187.667-9.238h-60.832v.446h60.832v-.446Zm172.008-7.312h-79.414v.446h79.414v-.446Zm-478.128 8.989h-19.867v.445h19.867v-.445Zm-35.757 0h-68.465v.445h68.465v-.445Zm-105.149-7.526h-49.4v.446h49.4v-.446Zm255.008-93.147H78.46a10.185 10.185 0 0 1-10.166-10.183V10.159A10.183 10.183 0 0 1 78.46.064h344.356a10.18 10.18 0 0 1 10.183 10.184v483.978a10.181 10.181 0 0 1-10.183 10.183ZM78.46.421a9.737 9.737 0 0 0-9.72 9.738v484.067a9.738 9.738 0 0 0 9.72 9.737h344.356a9.756 9.756 0 0 0 9.737-9.737V10.159A9.757 9.757 0 0 0 422.816.42H78.46Zm730.122 503.988H464.208a10.2 10.2 0 0 1-10.183-10.183V10.159A10.201 10.201 0 0 1 464.208.064h344.374a10.182 10.182 0 0 1 10.147 10.095v484.067a10.185 10.185 0 0 1-10.147 10.183ZM464.208.421a9.755 9.755 0 0 0-9.737 9.738v484.067a9.752 9.752 0 0 0 9.737 9.737h344.374a9.756 9.756 0 0 0 9.737-9.737V10.159A9.757 9.757 0 0 0 808.582.42H464.208Z"/>
  <path fill="#E6E6E6" d="M115.501 280.236H405.57V36.214H115.501v244.022Z"/>
  <path fill="#F0F0F0" d="M108.617 280.236H402.36V36.214H108.617v244.022Z"/>
  <path fill="#E6E6E6" d="M115.501 290.705H405.57v-10.469H115.501v10.469Z"/>
  <path fill="#F0F0F0" d="M97.114 290.705h293.743v-10.469H97.114v10.469Z"/>
  <path fill="#FAFAFA" d="M392.694 270.588V45.898H118.283v224.69h274.411Z"/>
  <path fill="#fff" d="m281.339 270.588-26.894-224.69h-41.963l26.894 224.69h41.963Z"/>
  <path fill="#F0F0F0" d="M388.218 260.975a.714.714 0 0 0 .696-.695V52.175a.698.698 0 0 0-1.188-.491.698.698 0 0 0-.204.491V260.28a.714.714 0 0 0 .696.695Z"/>
  <path fill="#fff" d="m230.37 270.588-26.894-224.69h-16.372l26.894 224.69h16.372Z"/>
  <path fill="#E6E6E6" d="M119.496 270.57V45.88h-1.23v224.69h1.23Z"/>
  <path fill="#EBEBEB" d="M106.334 64.106h290.052l.892-14.463H107.226l-.892 14.463Zm0 23.719h290.052l.892-14.463H107.226l-.892 14.463Zm0 23.72h290.052l.892-14.464H107.226l-.892 14.464Zm0 23.719h290.052l.892-14.464H107.226l-.892 14.464Zm0 23.737h290.052l.892-14.464H107.226l-.892 14.464Zm0 23.719h290.052l.892-14.463H107.226l-.892 14.463Z" opacity=".6"/>
  <path fill="#F5F5F5" d="M757.987 77.696h-290.64v195.192h290.64V77.696Z"/>
  <path fill="#E0E0E0" d="M757.987 272.888h6.831V77.696h-6.831v195.192Z"/>
  <path fill="#fff" d="M568.644 116.11h-57.96v88.225h57.96V116.11Z"/>
  <path fill="#fff" d="M602.011 227.626h-57.96l1.462-88.225h57.96l-1.462 88.225ZM723.015 95.85h-57.961v88.225h57.961V95.851Z"/>
  <path fill="#fff" d="M671.474 248.135h-53.555l3.62-81.519h53.556l-3.621 81.519Z"/>
  <path fill="#F0F0F0" d="M638.464 326.515s1.373 39.806 53.841 39.806c52.467 0 53.84-39.806 53.84-39.806H638.464Zm76.561 240.331h76.079V382.817h-76.079v184.029Zm-313.681 17.102h375.173v-17.085H401.344v17.085Z"/>
  <path fill="#F5F5F5" d="M715.025 382.835H386.72v184.028h328.305V382.835Z"/>
  <path fill="#F0F0F0" d="M685.118 405.216H416.627v56.623h268.491v-56.623Zm0 72.763H416.627v56.623h268.491v-56.623Z"/>
  <path fill="#F5F5F5" d="M519.387 414.9h62.989a6.08 6.08 0 0 0 6.064-6.063 6.084 6.084 0 0 0-6.064-6.064h-62.989a6.084 6.084 0 0 0-6.064 6.064 6.083 6.083 0 0 0 6.064 6.063Zm0 72.763h62.989a6.084 6.084 0 0 0 6.064-6.064 6.083 6.083 0 0 0-6.064-6.063h-62.989a6.081 6.081 0 0 0-6.064 6.063 6.084 6.084 0 0 0 6.064 6.064Z"/>
  <path fill="#F0F0F0" d="M376.573 382.835h338.452v-16.497H376.573v16.497Z"/>
  <path fill="#E6E6E6" d="M801.752 366.321h-86.709v16.496h86.709v-16.496Z"/>
  <path fill="#F5F5F5" d="M223.129 357.849H115.644v226.099h107.485V357.849Z"/>
  <path fill="#E6E6E6" d="M127.753 570.983V370.815h-1.873v200.168h1.873Z"/>
  <path fill="#E6E6E6" d="M211.198 370.815H125.88v2.372h85.318v-2.372Z"/>
  <path fill="#F5F5F5" d="M332.487 357.849H225.001v226.099h107.486V357.849Z"/>
  <path fill="#E0E0E0" d="M332.504 583.948h10.719V357.849h-10.719v226.099Z"/>
  <path fill="#E6E6E6" d="M237.111 570.983V370.815h-1.873v200.168h1.873Zm-12.11 12.965V359.74h-1.872v224.208h1.872Z"/>
  <path fill="#E6E6E6" d="M320.556 370.815h-85.318v2.372h85.318v-2.372Z"/>
  <path fill="#E0E0E0" d="M217.583 371.992a2.035 2.035 0 0 1 2.015 2.015v32.761a2.035 2.035 0 0 1-2.015 2.015 2.03 2.03 0 0 1-2.016-2.015v-32.761a2.035 2.035 0 0 1 2.016-2.015Zm12.983 0a2.017 2.017 0 0 1 2.015 2.015v32.761a2.017 2.017 0 0 1-2.015 2.015 2.035 2.035 0 0 1-2.016-2.015v-32.761a2.035 2.035 0 0 1 2.016-2.015Z"/>
  <path fill="#F5F5F5" d="M446 664.487c190.97 0 345.783-9.039 345.783-20.189 0-11.149-154.813-20.188-345.783-20.188-190.971 0-345.783 9.039-345.783 20.188 0 11.15 154.812 20.189 345.783 20.189Z"/>
  <path fill="#263238" d="M542.553 389.077c6.17 29.051-26.93 41.339-40.68 28.534s-13.072-51.95-31.619-52.985c26.769-20.723 66.289-3.816 72.299 24.451Z"/>
  <path fill="#A2FF86" d="M515.552 570.323a3.082 3.082 0 0 1-3.067-2.728c-6.849-57.622 1.783-195.264 72.37-252.975a3.094 3.094 0 0 1 2.316-.801 3.109 3.109 0 0 1 2.175 1.13 3.106 3.106 0 0 1 .272 3.54c-.214.363-.5.679-.84.928-68.553 56.07-76.864 190.931-70.141 247.446a3.117 3.117 0 0 1-2.71 3.442l-.375.018Z"/>
  <path fill="#A2FF86" d="M490.406 644.298h50.256a7.42 7.42 0 0 0 7.241-5.796l20.972-92.968a7.435 7.435 0 0 0-7.258-9.06h-92.166a7.435 7.435 0 0 0-5.801 2.787 7.432 7.432 0 0 0-1.439 6.273l20.954 92.986a7.44 7.44 0 0 0 7.241 5.778Z"/>
  <path fill="#fff" d="M490.406 644.298h50.256a7.42 7.42 0 0 0 7.241-5.796l20.972-92.968a7.435 7.435 0 0 0-7.258-9.06h-92.166a7.435 7.435 0 0 0-5.801 2.787 7.432 7.432 0 0 0-1.439 6.273l20.954 92.986a7.44 7.44 0 0 0 7.241 5.778Z" opacity=".6"/>
  <path fill="#A2FF86" d="M536.953 394.873a3.43 3.43 0 0 1-.714-.09 3.08 3.08 0 0 1-2.3-3.709c0-.446 10.076-44.3-5.243-70.07a3.11 3.11 0 0 1 3.45-4.586c.798.206 1.481.72 1.9 1.43 16.657 27.91 6.473 72.78 5.992 74.564a3.104 3.104 0 0 1-3.085 2.461Zm26.073-90.989c-1.248 27.999 59.53 41.357 79.005 29.515 19.474-11.842 5.724-49.935 37.201-50.22-52.628-21.312-114.993-6.545-116.206 20.705Z"/>
  <path fill="#A2FF86" d="M548.313 307.968c11.556 22.809-20.277 36.292-36.596 27.375-16.318-8.917-22.791-40.626-41.981-39.467 23.737-19.564 67.324-10.112 78.577 12.092Zm-34.545 215.256h-.124a3.122 3.122 0 0 1-2.979-3.21c0-.464 1.374-46.654-24.575-52.236a3.094 3.094 0 0 1-1.026-5.621 3.098 3.098 0 0 1 2.328-.425c31.013 6.652 29.551 56.391 29.462 58.513a3.084 3.084 0 0 1-3.086 2.979Z"/>
  <path fill="#A2FF86" d="M505.03 457.149c8.061 14.945-16.657 33.153-28.873 30.318-12.217-2.836-16.051-26.074-30.728-20.474 18.797-21.08 51.754-24.379 59.601-9.844Zm11.931 22.382a2.956 2.956 0 0 1-.678 0 3.129 3.129 0 0 1-1.933-1.364 3.126 3.126 0 0 1-.421-2.328c.464-2.105 11.771-51.629 45.548-64.809a3.115 3.115 0 0 1 2.44-.03 3.101 3.101 0 0 1-.193 5.808c-30.728 11.985-41.642 59.887-41.749 60.368a3.08 3.08 0 0 1-3.014 2.355Z"/>
  <path fill="#A2FF86" d="M554.055 394.766c-24.343 12.733-7.918 39.948 11.057 41.018 18.976 1.07 45.12-21.561 59.691-10.825-5.957-28.053-47.029-42.588-70.748-30.193ZM352.853 287.352a3.657 3.657 0 0 1-.767-5.101l153.479-208.8a3.655 3.655 0 0 1 5.101-.767 3.658 3.658 0 0 1 .766 5.1L357.953 286.568a3.573 3.573 0 0 1-3.813 1.413 3.566 3.566 0 0 1-1.287-.628Zm232.833-121.47-5.693 7.815 1.474 1.073 5.692-7.815-1.473-1.073Zm7.569-3.528-1.481-1.071a11.608 11.608 0 0 0-2.461-16.193l-39.092-28.73 1.07-1.463 39.164 28.677a13.43 13.43 0 0 1 3.525 3.877 13.427 13.427 0 0 1 1.515 10.166 13.415 13.415 0 0 1-2.24 4.737Z"/>
  <path fill="#fff" d="M528.036 228.5 356.83 102.681a7.024 7.024 0 0 1-1.498-9.826L405.66 24.39a7.002 7.002 0 0 1 4.601-2.792 7.012 7.012 0 0 1 5.225 1.294L586.692 148.71a7.002 7.002 0 0 1 2.784 4.593 7.006 7.006 0 0 1-1.286 5.215l-50.327 68.483a7.02 7.02 0 0 1-4.602 2.792 6.999 6.999 0 0 1-5.225-1.294Z"/>
  <path fill="#A2FF86" d="M532.102 230.782a7.972 7.972 0 0 1-4.69-1.533L356.206 103.412a7.889 7.889 0 0 1-3.159-5.193 7.917 7.917 0 0 1 1.464-5.9l50.328-68.482a7.954 7.954 0 0 1 11.093-1.783L587.138 147.89a7.97 7.97 0 0 1 3.138 5.19 7.836 7.836 0 0 1-1.462 5.903l-50.327 68.482a7.975 7.975 0 0 1-5.19 3.139 9.435 9.435 0 0 1-1.195.178Zm-3.567-3.014a6.076 6.076 0 0 0 4.456 1.11 6.077 6.077 0 0 0 3.962-2.322l50.345-68.483a6.095 6.095 0 0 0-1.302-8.524L414.79 23.712a6.077 6.077 0 0 0-6.77-.308 6.084 6.084 0 0 0-1.754 1.61L355.92 93.497a6.118 6.118 0 0 0-1.123 4.53 6.019 6.019 0 0 0 2.425 3.995l171.313 125.746Z"/>
  <path fill="#263238" d="m389.59 73.95 8.418 5.35a7.547 7.547 0 0 0-1.141 3.764 5.532 5.532 0 0 0 2.514 4.405 5.139 5.139 0 0 0 3.407 1.195 3.158 3.158 0 0 0 2.425-1.249 3.114 3.114 0 0 0 .464-2.586 13.24 13.24 0 0 0-3.157-4.761 23.193 23.193 0 0 1-5.493-9.15 8.355 8.355 0 0 1 1.498-7.133 8.914 8.914 0 0 1 4.156-3.067 9.843 9.843 0 0 1 5.867-.018 20.922 20.922 0 0 1 7.508 3.87 17.047 17.047 0 0 1 6.563 7.811 10.414 10.414 0 0 1-1.284 8.614l-8.311-5.35a4.608 4.608 0 0 0-.134-5.315 4.604 4.604 0 0 0-1.4-1.248 4.226 4.226 0 0 0-2.692-1.017 2.34 2.34 0 0 0-1.784.981c-.168.23-.279.499-.323.781-.043.283-.018.571.073.842a8.357 8.357 0 0 0 2.087 3.085 43.4 43.4 0 0 1 6.171 8.257 10.29 10.29 0 0 1 1.248 5.583 9.555 9.555 0 0 1-1.873 4.85 10.694 10.694 0 0 1-5.029 3.781c-2.09.77-4.362.9-6.527.375a19.906 19.906 0 0 1-7.437-3.692c-4.654-3.406-7.133-6.67-7.686-9.773a13.228 13.228 0 0 1 1.872-9.184Zm31.442 15.962a16.05 16.05 0 0 1 24.522-3.78c4.553 3.352 7.163 7.15 7.829 11.395a17.133 17.133 0 0 1-.596 6.891 17.138 17.138 0 0 1-3.274 6.092 20.87 20.87 0 0 1-7.384 6.688 14.264 14.264 0 0 1-8.167 1.337 19.084 19.084 0 0 1-8.917-3.87 21.54 21.54 0 0 1-6.563-7.133 14.258 14.258 0 0 1-1.498-8.275 19.13 19.13 0 0 1 4.048-9.345Zm8.418 6.242a11.372 11.372 0 0 0-2.836 7.133 7.136 7.136 0 0 0 2.83 4.929 7.136 7.136 0 0 0 5.534 1.295c1.873-.445 3.924-2.211 6.171-5.35a10.438 10.438 0 0 0 2.586-6.794 6.605 6.605 0 0 0-2.907-4.887 6.407 6.407 0 0 0-5.351-1.195 11.412 11.412 0 0 0-6.081 4.869h.054Zm14.481 31.673 20.099-27.357 14.071 10.361a24.966 24.966 0 0 1 5.492 5.065 7.885 7.885 0 0 1 1.516 4.94 10.363 10.363 0 0 1-5.849 8.578 9.262 9.262 0 0 1-4.637.714 13.034 13.034 0 0 1-3.763-1.088 10.095 10.095 0 0 1 1.462 2.621c.194.794.295 1.608.303 2.426a14.88 14.88 0 0 1 0 2.568l-1.783 10.932-9.541-7.009 1.623-11.681a7.976 7.976 0 0 0 0-3.228 4.462 4.462 0 0 0-1.605-2.158l-.749-.553-8.15 11.093-8.489-6.224Zm20.437-10.058 3.567 2.621c.796.507 1.638.937 2.515 1.284a2.85 2.85 0 0 0 1.997.143 3.443 3.443 0 0 0 2.354-3.852 6.277 6.277 0 0 0-2.639-3.014l-3.71-2.729-4.084 5.547Zm9.275 31.887 20.098-27.34 14.071 10.344a25.315 25.315 0 0 1 5.493 5.083 7.95 7.95 0 0 1 1.516 4.94 9.436 9.436 0 0 1-1.997 5.35 9.329 9.329 0 0 1-3.852 3.21 9.445 9.445 0 0 1-4.637.713 12.59 12.59 0 0 1-3.763-1.105c.608.8 1.1 1.683 1.462 2.621.193.801.294 1.62.303 2.443.073.855.073 1.714 0 2.569l-1.783 10.932-9.559-7.062 1.623-11.664a8.065 8.065 0 0 0 0-3.246 4.552 4.552 0 0 0-1.605-2.158l-.749-.535-8.15 11.093-8.471-6.188Zm20.509-10.023 3.566 2.622c.794.506 1.636.93 2.515 1.266a2.761 2.761 0 0 0 1.997.16 3.26 3.26 0 0 0 1.695-1.195 3.165 3.165 0 0 0 .66-2.657 6.295 6.295 0 0 0-2.64-3.032l-3.709-2.728-4.084 5.564Zm24.789 1.213 9.38 6.884-1.284 13.286 12.306-5.172 9.345 6.866-22.31 8.079-8.418 11.449-8.471-6.224 8.417-11.449 1.035-23.719Zm31.975 23.505 8.115 5.956-4.583 6.242-10.701 11.361-5.011-3.692 7.668-13.643 4.512-6.224Zm-14.891 20.848 7.562 5.564-4.851 6.706-7.562-5.565 4.851-6.705Z"/>
  <path fill="#B55B52" d="M398.651 162.96a92.471 92.471 0 0 1 1.676 3.816c.517 1.249.963 2.408 1.427 3.567.927 2.39 1.783 4.815 2.496 7.241a142.602 142.602 0 0 1 3.781 14.802c.535 2.497.945 5.029 1.356 7.561.41 2.533.677 5.119.873 7.705.462 5.218.575 10.461.339 15.694v.891a7.528 7.528 0 0 1-.249 1.695 31.399 31.399 0 0 1-4.53 9.88 57.71 57.71 0 0 1-5.35 6.723 100.831 100.831 0 0 1-11.218 10.522 159.461 159.461 0 0 1-11.824 8.703 144.994 144.994 0 0 1-12.484 7.49 6.83 6.83 0 0 1-8.203-10.7l.142-.161 9.238-9.969c3.05-3.353 6.046-6.688 8.917-10.058a117.34 117.34 0 0 0 7.669-10.041 34.702 34.702 0 0 0 2.711-4.69 7.49 7.49 0 0 0 .927-2.907l-.267 2.604c-.357-4.138-.785-8.275-1.552-12.484s-1.623-8.346-2.729-12.484c-1.105-4.137-2.282-8.328-3.566-12.484-.678-2.05-1.409-4.083-2.105-6.099l-1.105-2.978-1.035-2.711-.267-.695a13.622 13.622 0 0 1 7.498-17.276 13.621 13.621 0 0 1 17.594 6.718l-.16.125Z"/>
  <path fill="#263238" d="M309.998 61.057c-11.539 11.057-10.094 65.111-5.35 116.545 4.744 51.433 48.312 42.926 64.487 20.633 21.401-29.64-2.675-74.011.785-91.488 3.763-18.993 6.581-40.483-16.211-53.502-24.754-14.178-46.208-3.477-43.711 7.812Z"/>
  <path fill="#263238" d="M301.866 182.488h-.09a.983.983 0 0 1-.873-1.07c1.444-14.267.124-32.832-1.142-50.773-2.39-33.707-4.654-65.558 10.487-70.516a.96.96 0 0 1 1.23.624.98.98 0 0 1-.624 1.231c-13.679 4.476-11.378 37.041-9.149 68.536 1.284 18.012 2.604 36.631 1.141 51.094a.982.982 0 0 1-.98.874Z"/>
  <path fill="#B55B52" d="m323.231 170.967-4.405 12.484c-1.481 4.227-2.872 8.453-4.245 12.662a313.33 313.33 0 0 0-3.763 12.484 129.621 129.621 0 0 0-2.8 12.181v-2.034c-.086 2.21.21 4.418.874 6.528a44.124 44.124 0 0 0 1.409 3.709c.553 1.284 1.284 2.515 2.033 3.817a64.575 64.575 0 0 0 5.35 7.686 78.914 78.914 0 0 0 3.21 3.763l3.264 3.567.713.767a6.793 6.793 0 0 1-7.615 10.843c-1.177-.5-2.033-.838-2.996-1.284-.963-.446-1.783-.874-2.764-1.356a81.236 81.236 0 0 1-5.35-3.103 61.9 61.9 0 0 1-9.845-7.936 49.761 49.761 0 0 1-8.275-10.914A46.458 46.458 0 0 1 285.03 228a39.723 39.723 0 0 1-1.783-7.686 4.922 4.922 0 0 1 0-.892v-1.141a154.33 154.33 0 0 1 5.1-29.765c1.213-4.726 2.658-9.363 4.156-13.964a172.958 172.958 0 0 1 5.1-13.732 13.63 13.63 0 0 1 17.502-7.568 13.626 13.626 0 0 1 7.929 17.341l.197.374Z"/>
  <path fill="#A2FF86" d="M317.595 144.127c-14.267 2.693-17.246 8.507-27.714 30.104 3.156 14.267 23.023 26.751 23.023 26.751s28.089-38.468 4.691-56.855Z"/>
  <path fill="#A2FF86" d="M294.982 171.039c-.232 7.579.517 16.746 2.211 34.776 1.159 15.284-2.657 44.335 2.158 46.368h77.096c1.552-21.882.981-36.952 14.82-85.799a17.971 17.971 0 0 0-2.107-15.353 17.97 17.97 0 0 0-13.266-8.009 190.812 190.812 0 0 0-9.63-.732 246.155 246.155 0 0 0-34.99 0c-3.799.357-7.74.838-11.521 1.356a29.035 29.035 0 0 0-24.771 27.393Z"/>
  <path fill="#fff" d="M330.079 161.159c-.392 1.444-1.249 2.461-1.784 2.282-.535-.178-.82-1.48-.41-2.924.41-1.445 1.231-2.444 1.873-2.265.642.178.749 1.48.321 2.907Zm-2.818 11.895c-.196 1.48-.874 2.621-1.516 2.532-.642-.089-1.034-1.337-.856-2.817.179-1.481.856-2.622 1.516-2.533.66.089 1.035 1.355.856 2.818Z"/>
  <path fill="#B55B52" d="M358.845 104.197c-.338 11.646-1.783 30.674 5.493 38.182 0 0-10.7-1.587-33.314 12.484-6.562-9.416-1.694-12.484-1.694-12.484 6.456-1.177 12.092-7.739 8.56-15.89l20.955-22.292Z"/>
  <path fill="#fff" d="M335.786 151.974c7.454 1.052 9.79 12.323 9.79 12.323s17.834-12.68 23.595-21.614a73.372 73.372 0 0 1-6.545-4.156s-22.489 9.131-26.84 13.447Zm-7.098-1.213s-5.921 1.284-8.917 9.524c-1.783-16.425 6.081-17.941 6.081-17.941a9.578 9.578 0 0 1 6.742-.963 7.972 7.972 0 0 0-3.906 9.38Z"/>
  <path fill="#000" d="m345.737 119.552-2.943 1.783-4.904 5.208a11.222 11.222 0 0 1 .482 8.489c5.582-2.176 11.217-6.545 12.715-11.271v-.107a3.564 3.564 0 0 0-1.214-3.956 3.561 3.561 0 0 0-4.136-.146Z" opacity=".2"/>
  <path fill="#B55B52" d="M355.046 76.893c5.351 17.692 8.026 24.968 2.854 37.576-7.758 18.851-29.979 22.632-40.376 7.134-9.345-13.946-16.586-40.554-2.747-54.536 13.84-13.982 34.919-7.883 40.269 9.826Z"/>
  <path fill="#263238" d="M330.971 92.908c.517 1.462.196 2.96-.714 3.353-.909.392-2.068-.482-2.585-1.944-.518-1.462-.197-2.978.713-3.37.909-.393 2.069.48 2.586 1.961Zm-16.943 7.615c.517 1.463.196 2.978-.713 3.371-.91.392-2.051-.482-2.568-1.962-.517-1.48-.196-2.96.713-3.353.91-.392 2.015.482 2.568 1.944Z"/>
  <path fill="#263238" d="m311.853 98.49-3.692.41s2.675 2.016 3.692-.41Z"/>
  <path fill="#A02724" d="M318.986 99.685a46.077 46.077 0 0 1-1.658 11.503c2.479 1.016 5.35-1.159 5.35-1.159l-3.692-10.344Z"/>
  <path fill="#263238" d="M330.65 110.243c.84-.166 1.693-.255 2.55-.268a.431.431 0 0 1 .428.446.499.499 0 0 1-.482.464 12.915 12.915 0 0 0-10.005 4.958.431.431 0 0 1-.779-.159.434.434 0 0 1 .066-.323 13.445 13.445 0 0 1 8.222-5.118Z"/>
  <path fill="#FFB573" d="M364.231 88.485a12.704 12.704 0 0 1-3.567 9.613c-3.192 2.978-7.133-.446-8.15-5.35-.927-4.459-.374-11.36 3.763-12.377 4.138-1.017 7.829 3.353 7.954 8.114Z"/>
  <path fill="#263238" d="M340.779 59.452c-13.375 14.374 4.566 48.401 2.729 72.869-2.23 29.997 16.157 34.402 27.731 10.379-8.613-22.72.286-56.747-2.033-68.678-2.693-13.679-18.921-21.24-28.427-14.57Zm-17.316 21.49a.84.84 0 0 1 .66.196 6.617 6.617 0 0 0 6.099 1.569.839.839 0 0 1 1.07.589 1.001 1.001 0 0 1-.642 1.159 8.312 8.312 0 0 1-7.74-1.909.947.947 0 0 1 .074-1.4.943.943 0 0 1 .479-.204ZM305.86 95.601a.856.856 0 0 1-.66 0 .93.93 0 0 1-.499-1.177 9.543 9.543 0 0 1 5.903-6.01.819.819 0 0 1 1.034.66.944.944 0 0 1-.677 1.124 7.67 7.67 0 0 0-4.619 4.814.944.944 0 0 1-.482.589Zm22.953-4.744-3.692.428s2.675 2.015 3.692-.428Z"/>
  <path fill="#A2FF86" d="M376.59 143.2c12.484 1.944 17.566 5.76 27.821 30.977-4.655 9.399-25.485 33.207-25.485 33.207s-18.03-45.815-2.336-64.184Z"/>
  <path fill="#263238" d="M389.502 631.387c7.454-11.896 7.793-15.177 12.644-21.401 4.137-5.35 4.155-4.94 9.238-9.541 3.371-3.05.589-7.419-3.085-9.274-2.872-1.427-5.992-2.693-9.452-4.601l-13.233 12.002c2.301 6.831 1.016 21.044-4.013 30.478-3.584 6.724 4.922 7.081 7.901 2.337Z"/>
  <path fill="#263238" d="M299.351 252.272s-1.783 96.143-3.977 161.736a79.525 79.525 0 0 0 8.311 37.969c23.184 46.547 80.966 147.719 80.966 147.719 2.318 2.033 13.375-9.88 14.267-13.162 0 0-31.423-127.851-59.28-156.493 37.023-102.456 26.965-177.769 26.965-177.769h-67.252Z"/>
  <path fill="#000" d="m366.853 255.09-36.328 2.568s5.921 105.595 11.699 164.804c29.925-87.119 25.948-153.105 24.629-167.372Zm-23.398 179.535c3.245 30.317 6.598 69.873 8.114 106.361a6510.366 6510.366 0 0 0 28.427 50.506c2.836-12.716 5.868-27.892 8.293-43.978-10.736-37.202-28.124-90.722-44.834-112.889Z" opacity=".2"/>
  <path fill="#A2FF86" d="M377.553 594.702a335.327 335.327 0 0 1 5.243 6.813c.276.332.662.554 1.089.623.426.068.863-.02 1.229-.249a115.762 115.762 0 0 0 15.516-14.695 1.674 1.674 0 0 0 .196-1.926l-3.781-6.723a1.668 1.668 0 0 0-1.162-.815 1.681 1.681 0 0 0-1.37.369l-16.746 14.267a1.653 1.653 0 0 0-.214 2.336Z"/>
  <path fill="#fff" d="M377.553 594.702a335.327 335.327 0 0 1 5.243 6.813c.276.332.662.554 1.089.623.426.068.863-.02 1.229-.249a115.762 115.762 0 0 0 15.516-14.695 1.674 1.674 0 0 0 .196-1.926l-3.781-6.723a1.668 1.668 0 0 0-1.162-.815 1.681 1.681 0 0 0-1.37.369l-16.746 14.267a1.653 1.653 0 0 0-.214 2.336Z" opacity=".3"/>
  <path fill="#263238" d="M341.493 644.281c14.267 0 19.724-.232 27.785-.5 6.884-.232 8.453.625 13.982.5 4.619-.107 4.851-4.512 3.888-9.595-.482-2.55-1.302-5.671-1.909-9.791h-21.686c-3.459 5.618-16.157 9.845-24.307 10.915-7.758 1.034-3.442 8.471 2.247 8.471Z"/>
  <path fill="#263238" d="M319.503 252.272s22.418 123.465 30.639 179.374c8.632 58.852 19.261 154.157 13.411 193.196 3.175 1.943 14.909 2.068 21.686 0 0 0 29.872-128.173 5.654-190.592 16.282-137.535-7.812-144.705-14.464-182.031l-56.926.053Z"/>
  <path fill="#A2FF86" d="M362.662 616.763a59.077 59.077 0 0 1-1.481 8.025 1.504 1.504 0 0 0 .602 1.733c.184.12.393.198.611.229 7.829 1.284 19.475-.571 23.184-1.213a1.782 1.782 0 0 0 1.463-1.391l1.872-7.49a1.518 1.518 0 0 0-.258-1.362 1.519 1.519 0 0 0-1.258-.582l-22.952.446a1.784 1.784 0 0 0-1.783 1.605Z"/>
  <path fill="#fff" d="M362.662 616.763a59.077 59.077 0 0 1-1.481 8.025 1.504 1.504 0 0 0 .602 1.733c.184.12.393.198.611.229 7.829 1.284 19.475-.571 23.184-1.213a1.782 1.782 0 0 0 1.463-1.391l1.872-7.49a1.518 1.518 0 0 0-.258-1.362 1.519 1.519 0 0 0-1.258-.582l-22.952.446a1.784 1.784 0 0 0-1.783 1.605Z" opacity=".3"/>
  <path fill="#263238" d="M340.494 56.74c15.177 21.972-26.751 14.072-35.882 34.723.036-20.651 1.748-36.595 35.882-34.722Z"/>
  <path fill="#A2FF86" d="M376.447 252.272c-22.132 4.673-68.268 15.409-77.078 0 5.742-3.941 64.273-3.228 77.078 0Z"/>
  <path fill="#fff" d="M323.551 264.364c-1.462 0-2.835 0-4.083-.107-14.41-.749-18.53-5.172-18.69-5.35a.455.455 0 0 1-.109-.155.45.45 0 0 1 0-.369.45.45 0 0 1 .109-.154.481.481 0 0 1 .677 0s4.102 4.298 18.03 5.047c13.929.749 45.655-3.175 55.286-7.669a.517.517 0 0 1 .659.232.517.517 0 0 1-.249.66c-9.042 4.262-35.989 7.865-51.63 7.865Z"/>
  <path fill="#fff" d="M318.273 299.211a2.264 2.264 0 0 1-1.32-.481c-7.134-5.029-.374-29.622 3.424-36.328a.5.5 0 0 1 .928.196c.267 3.442 2.55 33.671-2.176 36.381-.26.153-.555.233-.856.232Zm2.176-34.794c-3.746 8.186-8.917 29.373-2.943 33.51.606.428.945.321 1.141.214 3.032-1.747 2.765-20.491 1.802-33.724Z"/>
  <path fill="#fff" d="M325.816 293.38a3.155 3.155 0 0 1-1.088-.232c-8.239-3.246-6.455-23.488-4.387-30.639a.508.508 0 0 1 .17-.245.51.51 0 0 1 .276-.112.535.535 0 0 1 .482.321c.981 2.747 9.469 26.858 5.814 30.407-.34.328-.795.507-1.267.5Zm-4.94-29.07c-1.908 8.293-2.639 25.235 4.209 27.928.892.357 1.213 0 1.32 0 2.318-2.3-1.855-17.406-5.529-27.928Z"/>
  <path fill="#fff" d="M312.941 281.431a.486.486 0 0 1-.482-.41c-.856-5.475 4.423-17.62 8.204-18.833a.453.453 0 0 1 .186-.028.454.454 0 0 1 .42.331.502.502 0 0 1-.303.624c-3.317 1.053-8.311 12.841-7.544 17.834a.497.497 0 0 1-.41.553l-.071-.071Z"/>
</svg>
