<svg id="Layer_1" data-name="Layer 1" xmlns="http://www.w3.org/2000/svg" viewBox="0 0 375.16 375.1"><defs><style>.cls-1{fill:#164b60;}</style></defs><title>clock</title><path class="cls-1" d="M143.51,34.88a76.91,76.91,0,0,0-100.76-6.8l-2.9-2.9A10.44,10.44,0,0,0,25.08,39.94l2.9,2.9a76.69,76.69,0,0,0,7,100.63,10.47,10.47,0,0,0,7.41,3,10.85,10.85,0,0,0,7.41-3l93.77-93.71a11.17,11.17,0,0,0,3-7.47A10.91,10.91,0,0,0,143.51,34.88ZM42.94,120.62A55.9,55.9,0,0,1,120.65,43Z" transform="translate(-12.42 -12.45)"/><path class="cls-1" d="M371.89,42.84l2.9-2.9A10.44,10.44,0,1,0,360,25.18l-2.9,2.9a76.66,76.66,0,0,0-100.57,6.79,10.21,10.21,0,0,0-3,7.41,10.91,10.91,0,0,0,3,7.41l93.77,93.71a10.37,10.37,0,0,0,7.41,3,10.85,10.85,0,0,0,7.41-3,76.55,76.55,0,0,0,6.73-100.57ZM357,120.62,279.29,43A55.91,55.91,0,0,1,357,120.62Z" transform="translate(-12.42 -12.45)"/><path class="cls-1" d="M200,135.69a10.43,10.43,0,0,0-10.44,10.44v67.64H152.09a10.44,10.44,0,0,0,0,20.88H200a10.43,10.43,0,0,0,10.44-10.44V146.07A10.41,10.41,0,0,0,200,135.69Z" transform="translate(-12.42 -12.45)"/><path class="cls-1" d="M350.08,223.91C350.15,141.25,282.75,73.86,200,73.86S49.79,141.19,49.79,223.91a150.31,150.31,0,0,0,65.42,123.86L97.79,371.18A10.41,10.41,0,0,0,100,385.82c3.52,2.66,11.3,1.85,14.52-2.16l18.84-25.27a149.82,149.82,0,0,0,133.13.06l19,25.39c3.27,4,11,4.82,14.52,2.16a10.5,10.5,0,0,0,2.16-14.64l-17.54-23.54A150,150,0,0,0,350.08,223.91Zm-56.52,79.2a10.44,10.44,0,1,0-14.76,14.76l4.69,4.69a128.87,128.87,0,0,1-73.08,30.21v-6.86a10.44,10.44,0,0,0-20.88,0v6.86a129.14,129.14,0,0,1-73.27-30.33l4.88-4.88a10.44,10.44,0,0,0-14.76-14.76l-4.88,4.88A127.65,127.65,0,0,1,71.1,234.59H78a10.44,10.44,0,0,0,0-20.88H71a128.55,128.55,0,0,1,30.33-73.33l4.82,4.82A10.44,10.44,0,0,0,121,130.44l-4.82-4.82a128.79,128.79,0,0,1,73.33-30.39v6.86a10.44,10.44,0,1,0,20.88,0V95.23a129.13,129.13,0,0,1,73.2,30.27l-4.88,4.88a10.44,10.44,0,0,0,14.76,14.76l4.88-4.88a128.47,128.47,0,0,1,30.52,73.45H322a10.47,10.47,0,0,0,0,20.94h6.86a129.06,129.06,0,0,1-30.58,73.27Z" transform="translate(-12.42 -12.45)"/></svg>