<?xml version="1.0" encoding="utf-8"?>
<!-- Generator: Adobe Illustrator 21.0.0, SVG Export Plug-In . SVG Version: 6.00 Build 0)  -->
<svg version="1.1" id="Layer_1" xmlns="http://www.w3.org/2000/svg" xmlns:xlink="http://www.w3.org/1999/xlink" x="0px" y="0px"
	 viewBox="0 0 1920 1080" style="enable-background:new 0 0 1920 1080;" xml:space="preserve">
<style type="text/css">
	.st0{fill:#FFFFFF;}
</style>
<g>
	<path class="st0" d="M270.6,540h774.3c0-288.5-233.9-522.5-522.5-522.5C233.9,17.5,0,251.5,0,540s233.9,522.5,522.5,522.5
		c46.8,0,92.2-6.1,135.3-17.7C434.8,985.2,270.6,781.7,270.6,540z M522.5,152.8c139.1,0,251.9,112.8,251.9,251.9H270.5
		C270.5,265.6,383.3,152.8,522.5,152.8z"/>
	<polygon class="st0" points="806.8,625.7 721.9,625.7 669,703 616.7,625.7 531.8,625.7 626.6,765.2 523.1,916.4 609.1,916.4 
		669.6,828 729.5,916.4 814.9,916.4 712,765.2 	"/>
	<path class="st0" d="M956.2,621.1c-80.8-1.7-151.7,69.2-150,150c-1.7,80.8,69.2,151.7,150,150c32.6,0,65.1-16.3,73.8-35.5v30.8
		h75.6V771.1C1107.3,690.3,1037,619.3,956.2,621.1z M1009.7,825.7c-14,14.5-31.4,21.5-52.9,21.5s-38.9-7-53.5-21.5
		c-14.5-14.5-21.5-33.1-21.5-54.6s7-39.5,21.5-54.1c14.5-14.5,32-22.1,53.5-22.1s38.9,7.6,52.9,22.1s20.9,32.6,20.9,54.1
		C1030.6,792.6,1023.6,811.2,1009.7,825.7z"/>
	<path class="st0" d="M1457.3,621.1c-38.9,0-72.1,14-93,40.1c-20.9-26.2-54.1-40.1-93-40.1c-78.5,0-130.8,48.8-130.8,142.4v152.9
		h75.6V763.5c0-46.5,18-68.6,55.2-68.6c37.8,0,55.2,22.1,55.2,68.6v152.9h75.6V763.5c0-46.5,18-68.6,55.2-68.6
		c37.8,0,55.2,22.1,55.2,68.6v152.9h75.6V763.5C1588.1,669.9,1535.7,621.1,1457.3,621.1z"/>
	<path class="st0" d="M1770,621.1c-80.8-1.7-151.7,69.2-150,150c-1.7,80.8,69.2,151.7,150,150c80.8,1.7,151.7-69.2,150-150
		C1921.7,690.3,1850.8,619.3,1770,621.1z M1823.5,825.7c-14,14.5-31.4,21.5-52.9,21.5s-38.9-7-53.5-21.5
		c-14.5-14.5-21.5-33.1-21.5-54.6s7-39.5,21.5-54.1c14.5-14.5,32-22.1,53.5-22.1s38.9,7.6,52.9,22.1s20.9,32.6,20.9,54.1
		C1844.4,792.6,1837.4,811.2,1823.5,825.7z"/>
</g>
</svg>
